<svg xmlns="http://www.w3.org/2000/svg" viewBox="0 0 1171 425" fill="none" role="img" aria-label="Yuzu Solutions">
<style>
  .logo-slice { fill: var(--logo-slice, #F8C607); }
  .logo-seed { fill: var(--logo-seeds, #FEF6DA); }
  .logo-text { fill: var(--logo-text, #2D3436); }
</style>
<g id="yuzu-horizontal">
<path class="logo-slice" d="M148.68 0C192.564 5.23313e-07 235.675 11.5516 273.68 33.4937C311.685 55.4357 343.244 86.9952 365.186 125C387.128 163.005 398.68 206.116 398.68 250C398.68 293.884 387.128 336.995 365.186 375L148.68 250L148.68 0Z"/>
<ellipse class="logo-seed" cx="188.698" cy="65.0422" rx="6.5" ry="18" transform="rotate(14.1311 188.698 65.0422)"/>
<ellipse class="logo-seed" cx="259.55" cy="95.9667" rx="6.5" ry="18" transform="rotate(36.5863 259.55 95.9667)"/>
<ellipse class="logo-seed" cx="333.419" cy="227.769" rx="6.5" ry="18" transform="rotate(85.9044 333.419 227.769)"/>
<ellipse class="logo-seed" cx="324.138" cy="304.248" rx="6.5" ry="18" transform="rotate(107.236 324.138 304.248)"/>
<ellipse class="logo-seed" cx="310.037" cy="154.671" rx="6.5" ry="18" transform="rotate(61.6629 310.037 154.671)"/>
<path class="logo-text" d="M437.708 63.862H486.803L525.244 139.945H526.842L565.283 63.862H614.377L547.882 184.956V245.68H504.203V184.956L437.708 63.862ZM742.795 63.862H786.652V181.138C786.652 194.692 783.426 206.499 776.975 216.561C770.524 226.563 761.527 234.317 749.986 239.821C738.445 245.266 725.04 247.988 709.77 247.988C694.322 247.988 680.828 245.266 669.287 239.821C657.745 234.317 648.779 226.563 642.387 216.561C635.995 206.499 632.799 194.692 632.799 181.138V63.862H676.744V177.321C676.744 183.594 678.105 189.188 680.828 194.1C683.61 199.012 687.486 202.859 692.458 205.641C697.429 208.423 703.2 209.814 709.77 209.814C716.339 209.814 722.08 208.423 726.993 205.641C731.964 202.859 735.841 199.012 738.623 194.1C741.404 189.188 742.795 183.594 742.795 177.321V63.862ZM813.574 245.68V220.645L901.908 99.5509H813.663V63.862H957.484V88.8975L869.149 209.991H957.395V245.68H813.574ZM1094.36 63.862H1138.21V181.138C1138.21 194.692 1134.99 206.499 1128.54 216.561C1122.09 226.563 1113.09 234.317 1101.55 239.821C1090.01 245.266 1076.6 247.988 1061.33 247.988C1045.88 247.988 1032.39 245.266 1020.85 239.821C1009.31 234.317 1000.34 226.563 993.949 216.561C987.557 206.499 984.361 194.692 984.361 181.138V63.862H1028.31V177.321C1028.31 183.594 1029.67 189.188 1032.39 194.1C1035.17 199.012 1039.05 202.859 1044.02 205.641C1048.99 208.423 1054.76 209.814 1061.33 209.814C1067.9 209.814 1073.64 208.423 1078.56 205.641C1083.53 202.859 1087.4 199.012 1090.19 194.1C1092.97 189.188 1094.36 183.594 1094.36 177.321V63.862ZM510.206 325.226C509.751 319.799 507.536 315.41 503.558 312.058C499.609 308.706 494.496 307.03 488.217 307.03C483.984 307.03 480.22 307.811 476.925 309.373C473.629 310.936 471.044 313.067 469.169 315.765C467.294 318.464 466.357 321.561 466.357 325.055C466.357 327.299 466.783 329.331 467.635 331.149C468.516 332.939 469.751 334.544 471.342 335.964C472.933 337.356 474.822 338.578 477.01 339.629C479.197 340.68 481.612 341.603 484.254 342.399L493.8 345.211C497.067 346.206 500.078 347.356 502.834 348.663C505.618 349.97 508.033 351.532 510.078 353.351C512.152 355.14 513.757 357.243 514.893 359.657C516.058 362.072 516.641 364.856 516.641 368.01C516.641 372.612 515.447 376.731 513.061 380.368C510.703 384.004 507.337 386.873 502.962 388.976C498.615 391.049 493.487 392.086 487.578 392.086C481.953 392.086 477.053 391.135 472.876 389.231C468.729 387.328 465.447 384.686 463.033 381.305C460.618 377.896 459.254 373.976 458.942 369.544H464.396C464.68 373.152 465.831 376.277 467.848 378.919C469.893 381.532 472.607 383.549 475.987 384.97C479.368 386.39 483.232 387.101 487.578 387.101C492.266 387.101 496.399 386.305 499.979 384.714C503.558 383.095 506.357 380.851 508.374 377.981C510.391 375.112 511.399 371.774 511.399 367.967C511.399 364.899 510.675 362.271 509.226 360.084C507.777 357.896 505.632 356.007 502.791 354.416C499.979 352.825 496.484 351.405 492.308 350.155L482.124 347.086C475.305 345.013 470.092 342.186 466.484 338.606C462.905 335.027 461.115 330.567 461.115 325.226C461.115 320.737 462.308 316.76 464.695 313.294C467.081 309.799 470.32 307.058 474.411 305.069C478.53 303.081 483.175 302.086 488.345 302.086C493.544 302.086 498.132 303.095 502.109 305.112C506.087 307.101 509.24 309.842 511.57 313.336C513.899 316.802 515.192 320.765 515.447 325.226H510.206ZM607.109 347.044C607.109 356.049 605.547 363.919 602.422 370.652C599.297 377.356 594.95 382.569 589.382 386.291C583.842 390.013 577.45 391.873 570.206 391.873C562.933 391.873 556.513 390.013 550.945 386.291C545.405 382.541 541.072 377.314 537.947 370.609C534.822 363.876 533.26 356.021 533.26 347.044C533.26 338.038 534.822 330.183 537.947 323.478C541.101 316.774 545.447 311.561 550.987 307.839C556.527 304.089 562.933 302.214 570.206 302.214C577.45 302.214 583.842 304.075 589.382 307.797C594.95 311.518 599.297 316.746 602.422 323.478C605.547 330.183 607.109 338.038 607.109 347.044ZM601.911 347.044C601.911 338.947 600.547 331.93 597.82 325.993C595.121 320.055 591.385 315.467 586.612 312.228C581.839 308.961 576.371 307.328 570.206 307.328C564.041 307.328 558.572 308.947 553.8 312.186C549.027 315.396 545.277 319.984 542.55 325.95C539.851 331.888 538.501 338.919 538.501 347.044C538.501 355.084 539.837 362.086 542.507 368.052C545.206 373.99 548.942 378.592 553.714 381.859C558.487 385.126 563.984 386.76 570.206 386.76C576.371 386.76 581.839 385.14 586.612 381.902C591.385 378.635 595.121 374.032 597.82 368.095C600.547 362.157 601.911 355.14 601.911 347.044ZM627.926 390.68V303.407H633.253V385.737H675.866V390.68H627.926ZM754.531 303.407H759.858V361.192C759.858 367.129 758.48 372.427 755.724 377.086C752.969 381.717 749.162 385.382 744.304 388.081C739.474 390.751 733.92 392.086 727.642 392.086C721.392 392.086 715.838 390.751 710.98 388.081C706.122 385.382 702.301 381.703 699.517 377.044C696.761 372.385 695.398 367.101 695.426 361.192V303.407H700.753V360.893C700.753 365.922 701.889 370.396 704.162 374.317C706.463 378.237 709.631 381.334 713.665 383.606C717.699 385.851 722.358 386.973 727.642 386.973C732.926 386.973 737.585 385.851 741.619 383.606C745.653 381.334 748.807 378.237 751.08 374.317C753.381 370.396 754.531 365.922 754.531 360.893V303.407ZM779.279 308.351V303.407H840.43V308.351H812.518V390.68H807.191V308.351H779.279ZM865.167 303.407V390.68H859.84V303.407H865.167ZM959.844 347.044C959.844 356.049 958.281 363.919 955.156 370.652C952.031 377.356 947.685 382.569 942.116 386.291C936.577 390.013 930.185 391.873 922.94 391.873C915.668 391.873 909.247 390.013 903.679 386.291C898.139 382.541 893.807 377.314 890.682 370.609C887.557 363.876 885.994 356.021 885.994 347.044C885.994 338.038 887.557 330.183 890.682 323.478C893.835 316.774 898.182 311.561 903.722 307.839C909.261 304.089 915.668 302.214 922.94 302.214C930.185 302.214 936.577 304.075 942.116 307.797C947.685 311.518 952.031 316.746 955.156 323.478C958.281 330.183 959.844 338.038 959.844 347.044ZM954.645 347.044C954.645 338.947 953.281 331.93 950.554 325.993C947.855 320.055 944.119 315.467 939.347 312.228C934.574 308.961 929.105 307.328 922.94 307.328C916.776 307.328 911.307 308.947 906.534 312.186C901.761 315.396 898.011 319.984 895.284 325.95C892.585 331.888 891.236 338.919 891.236 347.044C891.236 355.084 892.571 362.086 895.241 368.052C897.94 373.99 901.676 378.592 906.449 381.859C911.222 385.126 916.719 386.76 922.94 386.76C929.105 386.76 934.574 385.14 939.347 381.902C944.119 378.635 947.855 374.032 950.554 368.095C953.281 362.157 954.645 355.14 954.645 347.044ZM1047.35 303.407V390.68H1042.15L986.499 313.081H985.987V390.68H980.661V303.407H985.902L1041.56 381.092H1042.07V303.407H1047.35ZM1119.58 325.226C1119.13 319.799 1116.91 315.41 1112.93 312.058C1108.98 308.706 1103.87 307.03 1097.59 307.03C1093.36 307.03 1089.6 307.811 1086.3 309.373C1083 310.936 1080.42 313.067 1078.54 315.765C1076.67 318.464 1075.73 321.561 1075.73 325.055C1075.73 327.299 1076.16 329.331 1077.01 331.149C1077.89 332.939 1079.13 334.544 1080.72 335.964C1082.31 337.356 1084.2 338.578 1086.38 339.629C1088.57 340.68 1090.99 341.603 1093.63 342.399L1103.17 345.211C1106.44 346.206 1109.45 347.356 1112.21 348.663C1114.99 349.97 1117.41 351.532 1119.45 353.351C1121.53 355.14 1123.13 357.243 1124.27 359.657C1125.43 362.072 1126.02 364.856 1126.02 368.01C1126.02 372.612 1124.82 376.731 1122.44 380.368C1120.08 384.004 1116.71 386.873 1112.34 388.976C1107.99 391.049 1102.86 392.086 1096.95 392.086C1091.33 392.086 1086.43 391.135 1082.25 389.231C1078.1 387.328 1074.82 384.686 1072.41 381.305C1069.99 377.896 1068.63 373.976 1068.32 369.544H1073.77C1074.06 373.152 1075.21 376.277 1077.22 378.919C1079.27 381.532 1081.98 383.549 1085.36 384.97C1088.74 386.39 1092.61 387.101 1096.95 387.101C1101.64 387.101 1105.77 386.305 1109.35 384.714C1112.93 383.095 1115.73 380.851 1117.75 377.981C1119.77 375.112 1120.77 371.774 1120.77 367.967C1120.77 364.899 1120.05 362.271 1118.6 360.084C1117.15 357.896 1115.01 356.007 1112.17 354.416C1109.35 352.825 1105.86 351.405 1101.68 350.155L1091.5 347.086C1084.68 345.013 1079.47 342.186 1075.86 338.606C1072.28 335.027 1070.49 330.567 1070.49 325.226C1070.49 320.737 1071.68 316.76 1074.07 313.294C1076.46 309.799 1079.69 307.058 1083.79 305.069C1087.9 303.081 1092.55 302.086 1097.72 302.086C1102.92 302.086 1107.51 303.095 1111.48 305.112C1115.46 307.101 1118.62 309.842 1120.94 313.336C1123.27 316.802 1124.57 320.765 1124.82 325.226H1119.58Z"/>
<path class="logo-text" d="M291.3 128.265H212.749L151.243 249.998H148.686L87.1804 128.265H8.62925L115.021 322.015V419.174H184.908V322.015L291.3 128.265Z"/>
</g>
</svg>
