<svg xmlns="http://www.w3.org/2000/svg" viewBox="0 0 1063 360" fill="none" role="img" aria-label="Yuzu Solutions">
<style>
  .logo-slice { fill: var(--logo-slice, #F8C607); }
  .logo-seed { fill: var(--logo-seeds, #FEF6DA); }
  .logo-text { fill: var(--logo-text, #2D3436); }
</style>
<g id="yuzu-horizontal">
<path class="logo-slice" d="M1063 357.5C1063 314.623 1054.61 272.167 1038.3 232.554C1021.99 192.941 998.089 156.948 967.956 126.63C937.824 96.3113 902.051 72.2615 862.681 55.8533C823.311 39.4452 781.114 31 738.5 31L738.5 357.5H1063Z"/>
<ellipse class="logo-seed" cx="788.901" cy="100.525" rx="9.05412" ry="25.073" transform="rotate(14.1311 788.901 100.525)"/>
<ellipse class="logo-seed" cx="887.594" cy="143.601" rx="9.05412" ry="25.073" transform="rotate(36.5863 887.594 143.601)"/>
<ellipse class="logo-seed" cx="990.489" cy="327.194" rx="9.05413" ry="25.073" transform="rotate(85.9044 990.489 327.194)"/>
<ellipse class="logo-seed" cx="957.92" cy="225.373" rx="9.05412" ry="25.073" transform="rotate(61.6629 957.92 225.373)"/>
<path class="logo-text" d="M4.70819 31.1818H53.8026L92.2437 107.265H93.8417L132.283 31.1818H181.377L114.882 152.276V213H71.2032V152.276L4.70819 31.1818ZM309.795 31.1818H353.652V148.458C353.652 162.012 350.426 173.819 343.975 183.881C337.524 193.883 328.527 201.636 316.986 207.141C305.445 212.586 292.04 215.308 276.77 215.308C261.322 215.308 247.828 212.586 236.287 207.141C224.745 201.636 215.779 193.883 209.387 183.881C202.995 173.819 199.799 162.012 199.799 148.458V31.1818H243.744V144.641C243.744 150.914 245.105 156.507 247.828 161.42C250.61 166.332 254.486 170.179 259.458 172.961C264.429 175.743 270.2 177.134 276.77 177.134C283.339 177.134 289.08 175.743 293.993 172.961C298.964 170.179 302.841 166.332 305.623 161.42C308.404 156.507 309.795 150.914 309.795 144.641V31.1818ZM380.574 213V187.964L468.908 66.8707H380.663V31.1818H524.484V56.2173L436.149 177.311H524.395V213H380.574ZM661.358 31.1818H705.214V148.458C705.214 162.012 701.989 173.819 695.537 183.881C689.086 193.883 680.09 201.636 668.549 207.141C657.008 212.586 643.602 215.308 628.332 215.308C612.885 215.308 599.39 212.586 587.849 207.141C576.308 201.636 567.341 193.883 560.949 183.881C554.557 173.819 551.361 162.012 551.361 148.458V31.1818H595.307V144.641C595.307 150.914 596.668 156.507 599.39 161.42C602.172 166.332 606.049 170.179 611.02 172.961C615.992 175.743 621.763 177.134 628.332 177.134C634.902 177.134 640.643 175.743 645.555 172.961C650.527 170.179 654.403 166.332 657.185 161.42C659.967 156.507 661.358 150.914 661.358 144.641V31.1818ZM77.206 292.545C76.7514 287.119 74.5355 282.73 70.5582 279.378C66.6094 276.026 61.4957 274.349 55.2173 274.349C50.9844 274.349 47.2202 275.131 43.9247 276.693C40.6293 278.256 38.044 280.386 36.169 283.085C34.294 285.784 33.3565 288.881 33.3565 292.375C33.3565 294.619 33.7827 296.651 34.6349 298.469C35.5156 300.259 36.7514 301.864 38.3423 303.284C39.9332 304.676 41.8224 305.898 44.0099 306.949C46.1974 308 48.6122 308.923 51.2543 309.719L60.7997 312.531C64.0668 313.526 67.0781 314.676 69.8338 315.983C72.6179 317.29 75.0327 318.852 77.0781 320.67C79.152 322.46 80.7571 324.562 81.8935 326.977C83.0582 329.392 83.6406 332.176 83.6406 335.33C83.6406 339.932 82.4474 344.051 80.0611 347.688C77.7031 351.324 74.3366 354.193 69.9616 356.295C65.6151 358.369 60.4872 359.406 54.5781 359.406C48.9531 359.406 44.0526 358.455 39.8764 356.551C35.7287 354.648 32.4474 352.006 30.0327 348.625C27.6179 345.216 26.2543 341.295 25.9418 336.864H31.3963C31.6804 340.472 32.831 343.597 34.848 346.239C36.8935 348.852 39.6065 350.869 42.9872 352.29C46.3679 353.71 50.2315 354.42 54.5781 354.42C59.2656 354.42 63.3991 353.625 66.9787 352.034C70.5582 350.415 73.3565 348.17 75.3736 345.301C77.3906 342.432 78.3992 339.094 78.3992 335.287C78.3992 332.219 77.6747 329.591 76.2259 327.403C74.777 325.216 72.6321 323.327 69.7912 321.736C66.9787 320.145 63.4844 318.724 59.3082 317.474L49.1236 314.406C42.3054 312.332 37.0923 309.506 33.4844 305.926C29.9048 302.347 28.1151 297.886 28.1151 292.545C28.1151 288.057 29.3082 284.08 31.6946 280.614C34.081 277.119 37.3196 274.378 41.4105 272.389C45.5298 270.401 50.1747 269.406 55.3452 269.406C60.544 269.406 65.1321 270.415 69.1094 272.432C73.0866 274.42 76.2401 277.162 78.5696 280.656C80.8991 284.122 82.1918 288.085 82.4474 292.545H77.206ZM174.109 314.364C174.109 323.369 172.547 331.239 169.422 337.972C166.297 344.676 161.95 349.889 156.382 353.611C150.842 357.332 144.45 359.193 137.206 359.193C129.933 359.193 123.513 357.332 117.945 353.611C112.405 349.861 108.072 344.634 104.947 337.929C101.822 331.196 100.26 323.341 100.26 314.364C100.26 305.358 101.822 297.503 104.947 290.798C108.101 284.094 112.447 278.881 117.987 275.159C123.527 271.409 129.933 269.534 137.206 269.534C144.45 269.534 150.842 271.395 156.382 275.116C161.95 278.838 166.297 284.065 169.422 290.798C172.547 297.503 174.109 305.358 174.109 314.364ZM168.911 314.364C168.911 306.267 167.547 299.25 164.82 293.312C162.121 287.375 158.385 282.787 153.612 279.548C148.839 276.281 143.371 274.648 137.206 274.648C131.041 274.648 125.572 276.267 120.8 279.506C116.027 282.716 112.277 287.304 109.55 293.27C106.851 299.207 105.501 306.239 105.501 314.364C105.501 322.403 106.837 329.406 109.507 335.372C112.206 341.31 115.942 345.912 120.714 349.179C125.487 352.446 130.984 354.08 137.206 354.08C143.371 354.08 148.839 352.46 153.612 349.222C158.385 345.955 162.121 341.352 164.82 335.415C167.547 329.477 168.911 322.46 168.911 314.364ZM194.926 358V270.727H200.253V353.057H242.866V358H194.926ZM321.531 270.727H326.858V328.511C326.858 334.449 325.48 339.747 322.724 344.406C319.969 349.037 316.162 352.702 311.304 355.401C306.474 358.071 300.92 359.406 294.642 359.406C288.392 359.406 282.838 358.071 277.98 355.401C273.122 352.702 269.301 349.023 266.517 344.364C263.761 339.705 262.398 334.42 262.426 328.511V270.727H267.753V328.213C267.753 333.241 268.889 337.716 271.162 341.636C273.463 345.557 276.631 348.653 280.665 350.926C284.699 353.17 289.358 354.293 294.642 354.293C299.926 354.293 304.585 353.17 308.619 350.926C312.653 348.653 315.807 345.557 318.08 341.636C320.381 337.716 321.531 333.241 321.531 328.213V270.727ZM346.279 275.67V270.727H407.43V275.67H379.518V358H374.191V275.67H346.279ZM432.167 270.727V358H426.84V270.727H432.167ZM526.844 314.364C526.844 323.369 525.281 331.239 522.156 337.972C519.031 344.676 514.685 349.889 509.116 353.611C503.577 357.332 497.185 359.193 489.94 359.193C482.668 359.193 476.247 357.332 470.679 353.611C465.139 349.861 460.807 344.634 457.682 337.929C454.557 331.196 452.994 323.341 452.994 314.364C452.994 305.358 454.557 297.503 457.682 290.798C460.835 284.094 465.182 278.881 470.722 275.159C476.261 271.409 482.668 269.534 489.94 269.534C497.185 269.534 503.577 271.395 509.116 275.116C514.685 278.838 519.031 284.065 522.156 290.798C525.281 297.503 526.844 305.358 526.844 314.364ZM521.645 314.364C521.645 306.267 520.281 299.25 517.554 293.312C514.855 287.375 511.119 282.787 506.347 279.548C501.574 276.281 496.105 274.648 489.94 274.648C483.776 274.648 478.307 276.267 473.534 279.506C468.761 282.716 465.011 287.304 462.284 293.27C459.585 299.207 458.236 306.239 458.236 314.364C458.236 322.403 459.571 329.406 462.241 335.372C464.94 341.31 468.676 345.912 473.449 349.179C478.222 352.446 483.719 354.08 489.94 354.08C496.105 354.08 501.574 352.46 506.347 349.222C511.119 345.955 514.855 341.352 517.554 335.415C520.281 329.477 521.645 322.46 521.645 314.364ZM614.351 270.727V358H609.152L553.499 280.401H552.987V358H547.661V270.727H552.902L608.555 348.412H609.067V270.727H614.351ZM686.581 292.545C686.126 287.119 683.911 282.73 679.933 279.378C675.984 276.026 670.871 274.349 664.592 274.349C660.359 274.349 656.595 275.131 653.3 276.693C650.004 278.256 647.419 280.386 645.544 283.085C643.669 285.784 642.732 288.881 642.732 292.375C642.732 294.619 643.158 296.651 644.01 298.469C644.891 300.259 646.126 301.864 647.717 303.284C649.308 304.676 651.197 305.898 653.385 306.949C655.572 308 657.987 308.923 660.629 309.719L670.175 312.531C673.442 313.526 676.453 314.676 679.209 315.983C681.993 317.29 684.408 318.852 686.453 320.67C688.527 322.46 690.132 324.562 691.268 326.977C692.433 329.392 693.016 332.176 693.016 335.33C693.016 339.932 691.822 344.051 689.436 347.688C687.078 351.324 683.712 354.193 679.337 356.295C674.99 358.369 669.862 359.406 663.953 359.406C658.328 359.406 653.428 358.455 649.251 356.551C645.104 354.648 641.822 352.006 639.408 348.625C636.993 345.216 635.629 341.295 635.317 336.864H640.771C641.055 340.472 642.206 343.597 644.223 346.239C646.268 348.852 648.982 350.869 652.362 352.29C655.743 353.71 659.607 354.42 663.953 354.42C668.641 354.42 672.774 353.625 676.354 352.034C679.933 350.415 682.732 348.17 684.749 345.301C686.766 342.432 687.774 339.094 687.774 335.287C687.774 332.219 687.05 329.591 685.601 327.403C684.152 325.216 682.007 323.327 679.166 321.736C676.354 320.145 672.859 318.724 668.683 317.474L658.499 314.406C651.68 312.332 646.467 309.506 642.859 305.926C639.28 302.347 637.49 297.886 637.49 292.545C637.49 288.057 638.683 284.08 641.07 280.614C643.456 277.119 646.695 274.378 650.786 272.389C654.905 270.401 659.55 269.406 664.72 269.406C669.919 269.406 674.507 270.415 678.484 272.432C682.462 274.42 685.615 277.162 687.945 280.656C690.274 284.122 691.567 288.085 691.822 292.545H686.581Z"/>
</g>
</svg>
