<svg xmlns="http://www.w3.org/2000/svg" viewBox="0 0 656 761" fill="none" role="img" aria-label="Yuzu Solutions">
<style>
  .logo-slice { fill: var(--logo-slice, #F8C607); }
  .logo-seed { fill: var(--logo-seeds, #FEF6DA); }
  .logo-text { fill: var(--logo-text, #2D3436); }
</style>
<g id="yuzu-stacked">
<path class="logo-slice" d="M287.68 0C331.564 5.23313e-07 374.675 11.5516 412.68 33.4937C450.685 55.4357 482.244 86.9952 504.186 125C526.128 163.005 537.68 206.116 537.68 250C537.68 293.884 526.128 336.995 504.186 375L287.68 250V0Z"/>
<ellipse class="logo-seed" cx="327.698" cy="65.0422" rx="6.5" ry="18" transform="rotate(14.1311 327.698 65.0422)"/>
<ellipse class="logo-seed" cx="398.55" cy="95.9667" rx="6.5" ry="18" transform="rotate(36.5863 398.55 95.9667)"/>
<ellipse class="logo-seed" cx="472.419" cy="227.769" rx="6.5" ry="18" transform="rotate(85.9044 472.419 227.769)"/>
<ellipse class="logo-seed" cx="463.138" cy="304.248" rx="6.5" ry="18" transform="rotate(107.236 463.138 304.248)"/>
<ellipse class="logo-seed" cx="449.038" cy="154.671" rx="6.5" ry="18" transform="rotate(61.6629 449.038 154.671)"/>
<path class="logo-text" d="M61.9061 511.636H98.727L127.558 568.699H128.756L157.587 511.636H194.408L144.537 602.457V648H111.777V602.457L61.9061 511.636ZM290.721 511.636H323.614V599.594C323.614 609.759 321.195 618.614 316.356 626.161C311.518 633.662 304.771 639.477 296.115 643.605C287.459 647.689 277.405 649.731 265.952 649.731C254.367 649.731 244.246 647.689 235.59 643.605C226.934 639.477 220.209 633.662 215.415 626.161C210.621 618.614 208.224 609.759 208.224 599.594V511.636H241.183V596.73C241.183 601.436 242.204 605.631 244.246 609.315C246.332 612.999 249.24 615.884 252.968 617.971C256.697 620.057 261.025 621.1 265.952 621.1C270.879 621.1 275.185 620.057 278.869 617.971C282.598 615.884 285.506 612.999 287.592 609.315C289.678 605.631 290.721 601.436 290.721 596.73V511.636ZM343.805 648V629.223L410.056 538.403H343.872V511.636H451.738V530.413L385.487 621.233H451.671V648H343.805ZM554.393 511.636H587.286V599.594C587.286 609.759 584.866 618.614 580.028 626.161C575.19 633.662 568.442 639.477 559.787 643.605C551.131 647.689 541.077 649.731 529.624 649.731C518.039 649.731 507.918 647.689 499.262 643.605C490.606 639.477 483.881 633.662 479.087 626.161C474.293 618.614 471.896 609.759 471.896 599.594V511.636H504.855V596.73C504.855 601.436 505.876 605.631 507.918 609.315C510.004 612.999 512.912 615.884 516.64 617.971C520.369 620.057 524.697 621.1 529.624 621.1C534.551 621.1 538.857 620.057 542.541 617.971C546.27 615.884 549.178 612.999 551.264 609.315C553.35 605.631 554.393 601.436 554.393 596.73V511.636ZM116.279 707.909C115.939 703.839 114.277 700.548 111.294 698.033C108.332 695.519 104.497 694.262 99.788 694.262C96.6133 694.262 93.7901 694.848 91.3185 696.02C88.8469 697.192 86.908 698.79 85.5018 700.814C84.0955 702.838 83.3924 705.161 83.3924 707.781C83.3924 709.464 83.712 710.988 84.3512 712.352C85.0117 713.694 85.9386 714.898 87.1317 715.963C88.3249 717.007 89.7418 717.923 91.3825 718.712C93.0231 719.5 94.8342 720.192 96.8157 720.789L103.975 722.898C106.425 723.644 108.684 724.507 110.75 725.487C112.838 726.467 114.65 727.639 116.184 729.003C117.739 730.345 118.943 731.922 119.795 733.733C120.669 735.544 121.105 737.632 121.105 739.997C121.105 743.449 120.211 746.538 118.421 749.266C116.652 751.993 114.127 754.145 110.846 755.722C107.586 757.277 103.74 758.055 99.3086 758.055C95.0898 758.055 91.4144 757.341 88.2823 755.913C85.1715 754.486 82.7106 752.504 80.8995 749.969C79.0884 747.412 78.0657 744.472 77.8313 741.148H81.9222C82.1353 743.854 82.9982 746.197 84.511 748.179C86.0451 750.139 88.0799 751.652 90.6154 752.717C93.1509 753.783 96.0487 754.315 99.3086 754.315C102.824 754.315 105.924 753.719 108.609 752.526C111.294 751.311 113.392 749.628 114.905 747.476C116.418 745.324 117.174 742.82 117.174 739.965C117.174 737.664 116.631 735.693 115.544 734.053C114.458 732.412 112.849 730.995 110.718 729.802C108.609 728.609 105.988 727.543 102.856 726.606L95.2177 724.305C90.104 722.749 86.1942 720.629 83.4883 717.945C80.8036 715.26 79.4613 711.915 79.4613 707.909C79.4613 704.543 80.3562 701.56 82.146 698.96C83.9357 696.339 86.3647 694.283 89.4329 692.792C92.5224 691.3 96.006 690.555 99.8839 690.555C103.783 690.555 107.224 691.311 110.207 692.824C113.19 694.315 115.555 696.371 117.302 698.992C119.049 701.592 120.019 704.564 120.211 707.909H116.279ZM188.957 724.273C188.957 731.027 187.785 736.929 185.441 741.979C183.098 747.007 179.838 750.917 175.662 753.708C171.507 756.499 166.713 757.895 161.279 757.895C155.825 757.895 151.01 756.499 146.833 753.708C142.679 750.896 139.429 746.975 137.086 741.947C134.742 736.897 133.57 731.006 133.57 724.273C133.57 717.518 134.742 711.627 137.086 706.599C139.451 701.57 142.711 697.661 146.865 694.869C151.02 692.057 155.825 690.651 161.279 690.651C166.713 690.651 171.507 692.046 175.662 694.837C179.838 697.629 183.098 701.549 185.441 706.599C187.785 711.627 188.957 717.518 188.957 724.273ZM185.058 724.273C185.058 718.2 184.035 712.938 181.99 708.484C179.966 704.031 177.164 700.59 173.584 698.161C170.005 695.711 165.903 694.486 161.279 694.486C156.656 694.486 152.554 695.7 148.975 698.129C145.395 700.537 142.583 703.978 140.537 708.452C138.513 712.906 137.501 718.179 137.501 724.273C137.501 730.303 138.502 735.555 140.505 740.029C142.529 744.482 145.331 747.934 148.911 750.384C152.49 752.835 156.613 754.06 161.279 754.06C165.903 754.06 170.005 752.845 173.584 750.416C177.164 747.966 179.966 744.514 181.99 740.061C184.035 735.608 185.058 730.345 185.058 724.273ZM204.57 757V691.545H208.565V753.293H240.525V757H204.57ZM299.523 691.545H303.518V734.884C303.518 739.337 302.485 743.31 300.418 746.805C298.352 750.278 295.496 753.026 291.853 755.05C288.231 757.053 284.065 758.055 279.357 758.055C274.669 758.055 270.504 757.053 266.86 755.05C263.217 753.026 260.351 750.267 258.263 746.773C256.196 743.278 255.173 739.315 255.195 734.884V691.545H259.19V734.66C259.19 738.431 260.042 741.787 261.746 744.727C263.472 747.668 265.848 749.99 268.874 751.695C271.899 753.378 275.393 754.219 279.357 754.219C283.32 754.219 286.814 753.378 289.839 751.695C292.865 749.99 295.23 747.668 296.935 744.727C298.661 741.787 299.523 738.431 299.523 734.66V691.545ZM318.084 695.253V691.545H363.947V695.253H343.013V757H339.018V695.253H318.084ZM382.5 691.545V757H378.505V691.545H382.5ZM453.508 724.273C453.508 731.027 452.336 736.929 449.992 741.979C447.648 747.007 444.388 750.917 440.212 753.708C436.058 756.499 431.263 757.895 425.83 757.895C420.376 757.895 415.56 756.499 411.384 753.708C407.229 750.896 403.98 746.975 401.636 741.947C399.293 736.897 398.121 731.006 398.121 724.273C398.121 717.518 399.293 711.627 401.636 706.599C404.001 701.57 407.261 697.661 411.416 694.869C415.571 692.057 420.376 690.651 425.83 690.651C431.263 690.651 436.058 692.046 440.212 694.837C444.388 697.629 447.648 701.549 449.992 706.599C452.336 711.627 453.508 717.518 453.508 724.273ZM449.609 724.273C449.609 718.2 448.586 712.938 446.54 708.484C444.516 704.031 441.714 700.59 438.135 698.161C434.555 695.711 430.454 694.486 425.83 694.486C421.207 694.486 417.105 695.7 413.526 698.129C409.946 700.537 407.134 703.978 405.088 708.452C403.064 712.906 402.052 718.179 402.052 724.273C402.052 730.303 403.053 735.555 405.056 740.029C407.08 744.482 409.882 747.934 413.462 750.384C417.041 752.835 421.164 754.06 425.83 754.06C430.454 754.06 434.555 752.845 438.135 750.416C441.714 747.966 444.516 744.514 446.54 740.061C448.586 735.608 449.609 730.345 449.609 724.273ZM519.138 691.545V757H515.239L473.499 698.8H473.115V757H469.12V691.545H473.051L514.792 749.809H515.175V691.545H519.138ZM573.311 707.909C572.97 703.839 571.308 700.548 568.325 698.033C565.363 695.519 561.528 694.262 556.819 694.262C553.645 694.262 550.821 694.848 548.35 696.02C545.878 697.192 543.939 698.79 542.533 700.814C541.127 702.838 540.424 705.161 540.424 707.781C540.424 709.464 540.743 710.988 541.382 712.352C542.043 713.694 542.97 714.898 544.163 715.963C545.356 717.007 546.773 717.923 548.414 718.712C550.054 719.5 551.865 720.192 553.847 720.789L561.006 722.898C563.456 723.644 565.715 724.507 567.782 725.487C569.87 726.467 571.681 727.639 573.215 729.003C574.77 730.345 575.974 731.922 576.826 733.733C577.7 735.544 578.137 737.632 578.137 739.997C578.137 743.449 577.242 746.538 575.452 749.266C573.684 751.993 571.159 754.145 567.877 755.722C564.618 757.277 560.772 758.055 556.34 758.055C552.121 758.055 548.446 757.341 545.314 755.913C542.203 754.486 539.742 752.504 537.931 749.969C536.12 747.412 535.097 744.472 534.863 741.148H538.953C539.167 743.854 540.029 746.197 541.542 748.179C543.076 750.139 545.111 751.652 547.647 752.717C550.182 753.783 553.08 754.315 556.34 754.315C559.855 754.315 562.956 753.719 565.64 752.526C568.325 751.311 570.424 749.628 571.936 747.476C573.449 745.324 574.206 742.82 574.206 739.965C574.206 737.664 573.662 735.693 572.576 734.053C571.489 732.412 569.88 730.995 567.75 729.802C565.64 728.609 563.02 727.543 559.887 726.606L552.249 724.305C547.135 722.749 543.225 720.629 540.52 717.945C537.835 715.26 536.493 711.915 536.493 707.909C536.493 704.543 537.387 701.56 539.177 698.96C540.967 696.339 543.396 694.283 546.464 692.792C549.554 691.3 553.037 690.555 556.915 690.555C560.814 690.555 564.255 691.311 567.238 692.824C570.221 694.315 572.586 696.371 574.333 698.992C576.081 701.592 577.05 704.564 577.242 707.909H573.311Z"/>
<path class="logo-text" d="M430.3 128.265H351.749L290.243 249.998H287.686L226.18 128.265H147.629L254.021 322.015V419.174H323.908V322.015L430.3 128.265Z"/>
</g>
</svg>
